<?xml version="1.0" standalone="no"?>
<!DOCTYPE svg PUBLIC "-//W3C//DTD SVG 20010904//EN"
 "http://www.w3.org/TR/2001/REC-SVG-20010904/DTD/svg10.dtd">
<svg version="1.0" xmlns="http://www.w3.org/2000/svg"
 width="920.000000pt" height="512.000000pt" viewBox="0 0 920.000000 512.000000"
 preserveAspectRatio="xMidYMid meet">

<g transform="translate(0.000000,512.000000) scale(0.100000,-0.100000)"
fill="#000000" stroke="none">
<path d="M4415 4600 c-325 -33 -667 -154 -935 -330 -694 -457 -1047 -1291
-890 -2105 192 -993 1082 -1701 2090 -1662 318 13 584 82 863 224 514 262 898
737 1046 1293 54 203 65 293 65 535 0 234 -10 318 -61 515 -185 719 -749 1284
-1468 1470 -216 56 -507 80 -710 60z m-888 -1541 c15 -6 64 -45 108 -88 44
-43 104 -91 135 -106 50 -25 61 -27 138 -22 105 6 174 38 287 133 l80 66 94
-6 c104 -7 121 -13 141 -50 11 -22 20 -26 58 -26 33 0 54 -7 78 -25 23 -18 45
-25 76 -25 33 0 56 -8 94 -34 28 -19 78 -42 110 -51 45 -13 67 -26 94 -56 30
-34 43 -41 100 -51 47 -8 81 -22 124 -51 84 -57 147 -71 228 -52 117 28 230
16 335 -35 135 -66 213 -220 169 -334 -31 -81 -135 -148 -281 -182 -76 -18
-137 -19 -1165 -17 -938 1 -1225 5 -1236 16 -9 9 -66 532 -68 613 -1 99 -1
101 41 185 84 167 169 233 260 198z"/>
</g>
</svg>
